<?xml version="1.0" encoding="UTF-8"?>
<svg width="110px" height="51px" viewBox="0 0 110 51" version="1.1" xmlns="http://www.w3.org/2000/svg" xmlns:xlink="http://www.w3.org/1999/xlink">
    <!-- Generator: Sketch 52.2 (67145) - http://www.bohemiancoding.com/sketch -->
    <title>Group 5</title>
    <desc>Created with Sketch.</desc>
    <defs>
        <polygon id="path-1" points="0 31.3333333 89.1796875 31.3333333 110 31.3333333 110 0 0 0"></polygon>
        <polygon id="path-3" points="0 37.9996082 101.127794 37.9996082 101.127794 0 0 0"></polygon>
    </defs>
    <g id="Onboarding" stroke="none" stroke-width="1" fill="none" fill-rule="evenodd">
        <g id="Propuesta-Onboarding-4---Parte-2" transform="translate(-700.000000, -320.000000)">
            <g id="Group-2" transform="translate(327.000000, 320.000000)">
                <g id="Group-4" transform="translate(144.000000, 0.000000)">
                    <g id="Group-5" transform="translate(229.000000, 0.000000)">
                        <g id="Group">
                            <g id="Page-1">
                                <mask id="mask-2" fill="white">
                                    <use xlink:href="#path-1"></use>
                                </mask>
                                <g id="Clip-2"></g>
                                <polygon id="Fill-10" fill="#E53F40" mask="url(#mask-2)" points="54.6666667 6 109.333333 6 109.333333 0 54.6666667 0"></polygon>
                                <polygon id="Fill-11" fill="#006FB3" mask="url(#mask-2)" points="0 6 54.6666667 6 54.6666667 0 0 0"></polygon>
                            </g>
                        </g>
                        <g id="Page-1" transform="translate(4.000000, 13.000000)">
                            <path d="M50.7870392,21.8348 C47.4113072,21.8348 45.5994515,19.5963258 45.5994515,15.5988825 C45.5994515,11.8682227 47.3936784,9.48754227 50.7870392,9.48754227 C52.4214309,9.48754227 53.8959876,9.84286186 54.8730186,10.5002227 L53.9845237,12.3833773 C53.3628124,11.9034804 52.2792247,11.5481608 51.0358021,11.5481608 C49.045699,11.5481608 48.0510392,12.9518103 48.0510392,15.5812536 C48.0510392,18.3525113 49.045699,19.7737897 51.0001526,19.7737897 C52.172668,19.7737897 53.3447918,19.2766557 54.1623794,18.6725732 L54.908668,20.5553361 C53.718132,21.372532 52.3677608,21.8348 50.7870392,21.8348" id="Fill-1" fill="#8A8A8A"></path>
                            <path d="M56.4701155,21.6569052 L56.4701155,9.39857526 L58.7975175,9.39857526 L58.7975175,12.6144722 C58.7975175,13.2181629 58.673332,13.6980598 58.5667753,13.9644515 C59.0462804,13.3603691 59.8454557,12.7743072 61.0716412,12.7743072 C63.5588784,12.7743072 64.2514969,14.0710082 64.2514969,16.2742247 L64.2514969,21.6569052 L61.8888371,21.6569052 L61.8888371,16.4697093 C61.8888371,15.2258948 61.3917031,14.5505134 60.3433732,14.5505134 C59.7392907,14.5505134 59.1880948,14.7992763 58.7975175,15.0836887 L58.7975175,21.6569052 L56.4701155,21.6569052 Z" id="Fill-3" fill="#8A8A8A"></path>
                            <mask id="mask-4" fill="white">
                                <use xlink:href="#path-3"></use>
                            </mask>
                            <g id="Clip-6"></g>
                            <path d="M66.7734433,11.512433 L69.1180825,11.512433 L69.1180825,9.39853608 L66.7734433,9.39853608 L66.7734433,11.512433 Z M66.8443505,21.656866 L66.8443505,14.6217732 L65.8316701,14.4086598 L65.8316701,12.951732 L69.153732,12.951732 L69.153732,21.656866 L66.8443505,21.656866 Z" id="Fill-5" fill="#8A8A8A" mask="url(#mask-4)"></path>
                            <path d="M71.2847876,19.3473278 L71.2847876,9.39837938 L73.576932,9.39837938 L73.576932,19.2231423 C73.576932,19.9514103 74.0207876,20.057967 74.9801897,20.057967 L74.9801897,21.6923588 C74.9801897,21.6923588 74.3052,21.8349567 73.7011175,21.8349567 C71.9245196,21.8349567 71.2847876,20.8927918 71.2847876,19.3473278" id="Fill-7" fill="#8A8A8A" mask="url(#mask-4)"></path>
                            <path d="M80.1137546,14.4798804 C78.9592598,14.4798804 78.4793629,15.5278186 78.4793629,16.5585196 L81.6592186,16.5585196 C81.6592186,15.4388907 81.3219196,14.4798804 80.1137546,14.4798804 Z M78.4793629,17.9261278 C78.4793629,19.3121485 79.2609093,20.0756742 80.7178371,20.0756742 C81.606332,20.0756742 82.5120639,19.7383753 83.2759814,19.3474062 L83.7202289,20.9821897 C82.9919608,21.372767 81.8018165,21.8346433 80.4334247,21.8346433 C77.7510948,21.8346433 76.1523526,20.1649938 76.1523526,17.2867876 C76.1523526,14.604066 77.4486619,12.7741897 80.2379402,12.7741897 C82.8673835,12.7741897 83.8976928,14.7286433 83.8976928,16.9134474 L83.8976928,17.9261278 L78.4793629,17.9261278 Z" id="Fill-8" fill="#8A8A8A" mask="url(#mask-4)"></path>
                            <path d="M49.3122082,26.2630928 L47.5356103,32.8543299 L51.9060021,32.8543299 L50.3248887,26.2630928 L49.3122082,26.2630928 Z M46.4696515,37.0825155 L45.137301,37.0825155 L48.4241052,25.0905773 L51.3555897,25.0905773 L54.3932392,37.0825155 L52.9010536,37.0825155 L52.1727856,34.0268454 L47.2515897,34.0268454 L46.4696515,37.0825155 Z" id="Fill-9" fill="#8A8A8A" mask="url(#mask-4)"></path>
                            <path d="M58.8156557,37.2600577 C57.5898619,37.2600577 56.5771814,36.6383464 56.5771814,34.5953567 L56.5771814,29.354099 L55.2628515,29.354099 L55.2628515,28.377068 L56.5771814,28.377068 L56.5771814,26.7959546 L57.9271608,26.3697278 L57.9271608,28.377068 L60.468068,28.377068 L60.468068,29.354099 L57.9271608,29.354099 L57.9271608,34.7548 C57.9271608,35.6789443 58.2648515,36.1231918 59.0824392,36.1231918 C59.5439237,36.1231918 60.1836557,35.8920577 60.468068,35.7502433 L60.734068,36.7449031 C60.3611196,36.9756454 59.5262948,37.2600577 58.8156557,37.2600577" id="Fill-10" fill="#8A8A8A" mask="url(#mask-4)"></path>
                            <path d="M63.0608041,26.3696495 L64.4997113,26.3696495 L64.4997113,24.9483711 L63.0608041,24.9483711 L63.0608041,26.3696495 Z M63.1849897,37.0825155 L63.1849897,29.4609691 L62.2255876,29.2654845 L62.2255876,28.3769897 L64.4997113,28.3769897 L64.4997113,37.0825155 L63.1849897,37.0825155 Z" id="Fill-11" fill="#8A8A8A" mask="url(#mask-4)"></path>
                            <path d="M70.2549093,29.2299134 C68.6028887,29.2299134 67.927899,30.6868412 67.927899,32.1790268 L72.4757546,32.1790268 C72.4757546,30.6692124 71.9606,29.2299134 70.2549093,29.2299134 Z M67.927899,33.1208 C67.927899,35.2703464 69.0291155,36.2117278 70.6815278,36.2117278 C71.8007649,36.2117278 72.7954247,35.6969649 73.3814866,35.3416454 L73.7195691,36.3010474 C72.9909093,36.7449031 71.8540433,37.2600577 70.5393216,37.2600577 C68.1586412,37.2600577 66.5775278,35.6789443 66.5775278,32.6765526 C66.5775278,29.9229237 67.927899,28.1996041 70.3085794,28.1996041 C72.760167,28.1996041 73.7900845,30.1716866 73.7900845,32.3564907 L73.7900845,33.1208 L67.927899,33.1208 Z" id="Fill-12" fill="#8A8A8A" mask="url(#mask-4)"></path>
                            <path d="M81.3219196,37.0825546 L81.3219196,31.823668 C81.3219196,30.1716474 80.8067649,29.2655237 79.3322082,29.2655237 C78.4256928,29.2655237 77.7330742,29.7806784 77.2002907,30.2605753 L77.2002907,37.0825546 L75.8499196,37.0825546 L75.8499196,28.3770289 L76.7560433,28.3770289 L77.0224351,29.4077299 C77.5199608,28.8925753 78.4437134,28.1995649 79.7584351,28.1995649 C81.8014247,28.1995649 82.7075485,29.4253588 82.7075485,31.5929258 L82.7075485,37.0825546 L81.3219196,37.0825546 Z" id="Fill-13" fill="#8A8A8A" mask="url(#mask-4)"></path>
                            <path d="M90.5055402,29.8519773 C90.0969423,29.5675649 89.3686742,29.2298742 88.3916433,29.2298742 C86.7568598,29.2298742 85.9753134,30.5093381 85.9753134,32.7121629 C85.9753134,34.8617093 86.667932,36.2473381 88.3023237,36.2473381 C89.0842619,36.2473381 89.794901,35.9100392 90.5055402,35.1461216 L90.5055402,29.8519773 Z M90.6117052,36.0342247 C90.1145711,36.6915856 89.1375402,37.2600186 88.1068392,37.2600186 C86.0462206,37.2600186 84.6069216,35.7325753 84.6069216,32.7121629 C84.6069216,30.0650907 85.9220351,28.1995649 88.2490454,28.1995649 C89.3330247,28.1995649 90.0789216,28.5548845 90.5764474,28.9458536 C90.5231691,28.4839773 90.5055402,28.0397299 90.5055402,27.5245753 L90.5055402,24.8242247 L91.8555196,24.8242247 L91.8555196,37.0825546 L90.8428392,37.0825546 L90.6117052,36.0342247 Z" id="Fill-14" fill="#8A8A8A" mask="url(#mask-4)"></path>
                            <path d="M97.5926577,29.2299134 C95.9406371,29.2299134 95.2656474,30.6868412 95.2656474,32.1790268 L99.8135031,32.1790268 C99.8135031,30.6692124 99.2983485,29.2299134 97.5926577,29.2299134 Z M95.2656474,33.1208 C95.2656474,35.2703464 96.3668639,36.2117278 98.0192763,36.2117278 C99.1385134,36.2117278 100.133173,35.6969649 100.719235,35.3416454 L101.057318,36.3010474 C100.328658,36.7449031 99.1917918,37.2600577 97.8770701,37.2600577 C95.4963897,37.2600577 93.9152763,35.6789443 93.9152763,32.6765526 C93.9152763,29.9229237 95.2656474,28.1996041 97.6463278,28.1996041 C100.097915,28.1996041 101.127833,30.1716866 101.127833,32.3564907 L101.127833,33.1208 L95.2656474,33.1208 Z" id="Fill-15" fill="#8A8A8A" mask="url(#mask-4)"></path>
                            <path d="M21.4168784,31.7567959 C20.0633732,31.7567959 18.9652907,30.6430433 18.9652907,29.2703423 C18.9652907,27.898033 20.0633732,26.7858474 21.4168784,26.7858474 C22.7703835,26.7858474 23.8672907,27.898033 23.8672907,29.2703423 C23.8672907,30.6430433 22.7703835,31.7567959 21.4168784,31.7567959 Z M13.8654557,30.0342598 C14.9036,30.0342598 15.7450845,30.8871052 15.7450845,31.9397443 C15.7450845,32.9923835 14.9036,33.8464041 13.8654557,33.8464041 C12.8273113,33.8464041 11.9854351,32.9923835 11.9854351,31.9397443 C11.9854351,30.8871052 12.8273113,30.0342598 13.8654557,30.0342598 Z M25.7010845,35.8737237 L25.7010845,37.9997649 L17.1514763,37.9997649 L17.1318887,37.9997649 L10.5790433,37.9997649 L10.5790433,37.0043216 C10.5790433,35.5254557 11.7778062,34.3270845 13.2558887,34.3270845 L14.4742392,34.3270845 C15.8469402,34.3270845 16.9767546,35.3605278 17.1318887,36.6920948 L17.1318887,35.8737237 C17.1318887,33.9459093 18.6945897,32.3832082 20.6224041,32.3832082 L22.2105691,32.3832082 C24.1383835,32.3832082 25.7010845,33.9459093 25.7010845,35.8737237 Z M3.79741443,7.27147629 L6.98001237,6.11110515 L7.85597113,2.80079588 L9.95106392,5.50976495 L13.3342392,5.33935258 L11.4416825,8.14939381 L12.6788371,11.3429608 L9.39164124,10.3823835 L6.73712577,12.5464247 L6.6344866,9.12329072 L3.79741443,7.27147629 Z M15.7752495,23.0924041 C15.7752495,25.0723216 14.1929608,26.6785072 12.2408577,26.6785072 C10.2883629,26.6785072 8.70450722,25.0723216 8.70450722,23.0924041 C8.70450722,21.1128784 10.2883629,19.5082598 12.2408577,19.5082598 C14.1929608,19.5082598 15.7752495,21.1128784 15.7752495,23.0924041 Z M11.0945897,27.5818887 L13.3855588,27.5818887 C14.6763835,27.5818887 15.8496825,28.0715794 16.7401361,28.8711464 L16.7401361,0.000156701031 L2.56613608,0.000156701031 C1.14916701,0.000156701031 0.000156701031,0.936053608 0.000156701031,2.09054845 L0.000156701031,35.9089814 C0.000156701031,37.0634763 1.14916701,37.9997649 2.56613608,37.9997649 L6.06017732,37.9997649 C6.06017732,37.9970227 6.05978557,37.9946722 6.05978557,37.9919299 L6.05978557,32.616301 C6.05978557,29.836033 8.3139299,27.5818887 11.0945897,27.5818887 Z M24.3930227,23.6459505 C22.0401567,23.6459505 20.1319299,21.710301 20.1319299,19.3241361 C20.1319299,16.9387546 22.0401567,15.0050639 24.3930227,15.0050639 C26.7458887,15.0050639 28.6525485,16.9387546 28.6525485,19.3241361 C28.6525485,21.710301 26.7458887,23.6459505 24.3930227,23.6459505 Z M35.1199918,0.000156701031 L17.5236412,0.000156701031 L17.5236412,27.9082186 C18.4916619,25.8448577 20.5820536,24.4137856 23.0117031,24.4137856 L25.7727753,24.4137856 C29.1234351,24.4137856 31.8398474,27.1301979 31.8398474,30.4812495 L31.8398474,36.9588784 C31.8398474,37.3149814 31.8049814,37.6612907 31.7442598,37.9997649 L35.1199918,37.9997649 C36.2748784,37.9997649 37.211167,37.0634763 37.211167,35.9089814 L37.211167,2.09054845 C37.211167,0.936053608 36.2748784,0.000156701031 35.1199918,0.000156701031 Z" id="Fill-16" fill="#8A8A8A" mask="url(#mask-4)"></path>
                        </g>
                    </g>
                </g>
            </g>
        </g>
    </g>
</svg>