<?xml version="1.0" encoding="UTF-8"?>
<svg width="186px" height="52px" viewBox="0 0 186 52" version="1.1" xmlns="http://www.w3.org/2000/svg" xmlns:xlink="http://www.w3.org/1999/xlink">
    <!-- Generator: Sketch 52.1 (67048) - http://www.bohemiancoding.com/sketch -->
    <title>Fill 1</title>
    <desc>Created with Sketch.</desc>
    <g id="UI-KIT" stroke="none" stroke-width="1" fill="none" fill-rule="evenodd">
        <g id="Iconos-" transform="translate(-71.000000, -438.000000)" fill="#006FB3">
            <path d="M243,471 L249,471 L249,463 L243,463 L243,471 Z M243,485 L249,485 L249,477 L243,477 L243,485 Z M227,471 L233,471 L233,463 L227,463 L227,471 Z M227,485 L233,485 L233,477 L227,477 L227,485 Z M211,471 L217,471 L217,463 L211,463 L211,471 Z M211,485 L217,485 L217,477 L211,477 L211,485 Z M197,471 L203,471 L203,463 L197,463 L197,471 Z M197,485 L203,485 L203,477 L197,477 L197,485 Z M181,458 L187,458 L187,450 L181,450 L181,458 Z M181,471 L187,471 L187,463 L181,463 L181,471 Z M181,485 L187,485 L187,477 L181,477 L181,485 Z M160,458 L167,458 L167,450 L160,450 L160,458 Z M141,458 L147,458 L147,450 L141,450 L141,458 Z M141,471 L147,471 L147,463 L141,463 L141,471 Z M141,485 L147,485 L147,477 L141,477 L141,485 Z M125,471 L131,471 L131,463 L125,463 L125,471 Z M125,485 L131,485 L131,477 L125,477 L125,485 Z M110,471 L116,471 L116,463 L110,463 L110,471 Z M110,485 L116,485 L116,477 L110,477 L110,485 Z M95,471 L101,471 L101,463 L95,463 L95,471 Z M95,485 L101,485 L101,477 L95,477 L95,485 Z M79,471 L85,471 L85,463 L79,463 L79,471 Z M79,485 L85,485 L85,477 L79,477 L79,485 Z M257,467.784104 L257,462.76552 L255.32028,462.76552 L255.32028,453.440095 L254.409777,450.476078 C254.932531,450.091736 255.277894,449.474891 255.277894,448.772637 C255.277894,447.606959 254.339134,446.661131 253.183738,446.661131 C252.025202,446.661131 251.088012,447.606959 251.088012,448.772637 C251.088012,449.448003 251.408258,450.042705 251.898045,450.428628 L251.20261,453.00514 L240.223203,453.00514 L239.532477,450.449189 C240.037963,450.063266 240.367628,449.459075 240.367628,448.772637 C240.367628,447.606959 239.430438,446.661131 238.271902,446.661131 C237.116505,446.661131 236.177746,447.606959 236.177746,448.772637 C236.177746,449.47331 236.519969,450.086991 237.041153,450.471333 L236.358276,453.00514 L225.170082,453.00514 L224.490345,450.482404 C225.017808,450.099644 225.364741,449.479636 225.364741,448.772637 C225.364741,447.606959 224.427551,446.661131 223.270585,446.661131 C222.113619,446.661131 221.174859,447.606959 221.174859,448.772637 C221.174859,449.452748 221.501384,450.052195 221.997451,450.438118 L221.305155,453.00514 L210.116961,453.00514 L209.424665,450.433373 C209.916022,450.04745 210.239408,449.449585 210.239408,448.772637 C210.239408,447.606959 209.300648,446.661131 208.145252,446.661131 C206.986716,446.661131 206.049526,447.606959 206.049526,448.772637 C206.049526,449.4828 206.399598,450.105971 206.931771,450.487149 L206.253604,453.00514 L195.365248,453.00514 L195.365248,444.222222 L195.371527,444.222222 L194.699639,441.732701 C195.165879,441.345196 195.468857,440.767892 195.468857,440.111507 C195.468857,438.944247 194.531667,438 193.3747,438 C192.217734,438 191.278974,438.944247 191.278974,440.111507 C191.278974,440.81376 191.625907,441.433768 192.150231,441.81811 L191.501891,444.222222 L175.924445,444.222222 L175.232149,441.650455 C175.641876,441.266113 175.904038,440.720443 175.904038,440.111507 C175.904038,438.944247 174.965278,438 173.808312,438 C172.651345,438 171.714155,438.944247 171.714155,440.111507 C171.714155,440.858047 172.101904,441.511269 172.684312,441.887703 L172.053239,444.222222 L155.95304,444.222222 L155.328247,441.906682 C155.931062,441.538157 156.337649,440.873863 156.337649,440.111507 C156.337649,438.944247 155.398889,438 154.243493,438 C153.084957,438 152.147767,438.944247 152.147767,440.111507 C152.147767,440.704626 152.392661,441.239225 152.783549,441.621985 L152.081834,444.222222 L136.504389,444.222222 L135.863897,441.84658 C136.411769,441.466983 136.77126,440.83274 136.77126,440.111507 C136.77126,438.944247 135.83407,438 134.677104,438 C133.520138,438 132.581378,438.944247 132.581378,440.111507 C132.581378,440.748913 132.868657,441.313563 133.31449,441.702649 L132.634752,444.222222 L132.620624,444.222222 L132.620624,453.00514 L121.752675,453.00514 L121.090206,450.547252 C121.671044,450.1724 122.058793,449.519178 122.058793,448.772637 C122.058793,447.606959 121.120033,446.661131 119.963067,446.661131 C118.8061,446.661131 117.868911,447.606959 117.868911,448.772637 C117.868911,449.411625 118.15619,449.976275 118.600452,450.36378 L117.887749,453.00514 L106.699554,453.00514 L106.032376,450.52669 C106.592806,450.147094 106.963286,449.503361 106.963286,448.772637 C106.963286,447.606959 106.024527,446.661131 104.86913,446.661131 C103.712164,446.661131 102.773404,447.606959 102.773404,448.772637 C102.773404,449.427442 103.076382,450.006327 103.541052,450.39225 L102.836197,453.00514 L91.6480031,453.00514 L90.9714054,450.499802 C91.5129975,450.118624 91.8677796,449.487544 91.8677796,448.772637 C91.8677796,447.606959 90.9305898,446.661131 89.7736234,446.661131 C88.6166571,446.661131 87.6778974,447.606959 87.6778974,448.772637 C87.6778974,449.443258 87.9950035,450.034796 88.4816515,450.42072 L87.7830762,453.00514 L76.651396,453.00514 L75.9575301,450.433373 C76.4504574,450.04745 76.7738429,449.449585 76.7738429,448.772637 C76.7738429,447.606959 75.8350832,446.661131 74.6781169,446.661131 C73.5211505,446.661131 72.5839607,447.606959 72.5839607,448.772637 C72.5839607,449.4828 72.9340333,450.104389 73.4662064,450.487149 L72.6985585,453.327798 L72.68443,462.76552 L71,462.76552 L71,467.784104 L72.68443,467.784104 L72.68443,484.979834 L71,484.979834 L71,490 L157.414554,490 L157.414554,471.121392 C157.414554,467.376038 160.439621,464.328193 164.158553,464.328193 C167.875916,464.328193 170.899413,467.376038 170.899413,471.121392 L170.899413,490 L257,490 L257,484.979834 L255.32028,484.979834 L255.32028,467.784104 L257,467.784104 Z" id="Fill-1"></path>
        </g>
    </g>
</svg>