<?xml version="1.0" encoding="UTF-8" standalone="no"?>
<svg width="109px" height="31px" viewBox="0 0 109 31" version="1.1" xmlns="http://www.w3.org/2000/svg" xmlns:xlink="http://www.w3.org/1999/xlink">
    <!-- Generator: Sketch 47 (45396) - http://www.bohemiancoding.com/sketch -->
    <title>Group 9</title>
    <desc>Created with Sketch.</desc>
    <defs></defs>
    <g id="Page-1" stroke="none" stroke-width="1" fill="none" fill-rule="evenodd">
        <g id="Artboard">
            <g id="Group-9">
                <g id="Group-9-Copy-5" transform="translate(2.000000, 0.000000)" fill="#FFFFFF">
                    <path d="M42.2868911,10.1373807 L43.8227609,10.1373807 L43.8227609,8.17633401 L42.2868911,8.17633401 L42.2868911,10.1373807 Z M42.2868911,13.3883262 L43.8227609,13.3883262 L43.8227609,11.4272795 L42.2868911,11.4272795 L42.2868911,13.3883262 Z M38.5108875,10.1373807 L40.0471456,10.1373807 L40.0471456,8.17633401 L38.5108875,8.17633401 L38.5108875,10.1373807 Z M38.5108875,13.3883262 L40.0471456,13.3883262 L40.0471456,11.4272795 L38.5108875,11.4272795 L38.5108875,13.3883262 Z M34.7504136,10.1373807 L36.2866716,10.1373807 L36.2866716,8.17633401 L34.7504136,8.17633401 L34.7504136,10.1373807 Z M34.7504136,13.3883262 L36.2866716,13.3883262 L36.2866716,11.4272795 L34.7504136,11.4272795 L34.7504136,13.3883262 Z M30.9992573,10.1373807 L32.5355153,10.1373807 L32.5355153,8.17633401 L30.9992573,8.17633401 L30.9992573,10.1373807 Z M30.9992573,13.3883262 L32.5355153,13.3883262 L32.5355153,11.4272795 L30.9992573,11.4272795 L30.9992573,13.3883262 Z M27.1327943,6.9661871 L28.6686641,6.9661871 L28.6686641,5.00514037 L27.1327943,5.00514037 L27.1327943,6.9661871 Z M27.1327943,10.1373807 L28.6686641,10.1373807 L28.6686641,8.17633401 L27.1327943,8.17633401 L27.1327943,10.1373807 Z M27.1327943,13.3883262 L28.6686641,13.3883262 L28.6686641,11.4272795 L27.1327943,11.4272795 L27.1327943,13.3883262 Z M22.1245231,6.9661871 L23.8754769,6.9661871 L23.8754769,5.00514037 L22.1245231,5.00514037 L22.1245231,6.9661871 Z M17.2963944,6.9661871 L18.8326525,6.9661871 L18.8326525,5.00514037 L17.2963944,5.00514037 L17.2963944,6.9661871 Z M17.2963944,10.1373807 L18.8326525,10.1373807 L18.8326525,8.17633401 L17.2963944,8.17633401 L17.2963944,10.1373807 Z M17.2963944,13.3883262 L18.8326525,13.3883262 L18.8326525,11.4272795 L17.2963944,11.4272795 L17.2963944,13.3883262 Z M13.4299315,10.1373807 L14.9658013,10.1373807 L14.9658013,8.17633401 L13.4299315,8.17633401 L13.4299315,10.1373807 Z M13.4299315,13.3883262 L14.9658013,13.3883262 L14.9658013,11.4272795 L13.4299315,11.4272795 L13.4299315,13.3883262 Z M9.67877519,10.1373807 L11.214645,10.1373807 L11.214645,8.17633401 L9.67877519,8.17633401 L9.67877519,10.1373807 Z M9.67877519,13.3883262 L11.214645,13.3883262 L11.214645,11.4272795 L9.67877519,11.4272795 L9.67877519,13.3883262 Z M5.91791297,10.1373807 L7.45417103,10.1373807 L7.45417103,8.17633401 L5.91791297,8.17633401 L5.91791297,10.1373807 Z M5.91791297,13.3883262 L7.45417103,13.3883262 L7.45417103,11.4272795 L5.91791297,11.4272795 L5.91791297,13.3883262 Z M2.14229769,10.1373807 L3.67855575,10.1373807 L3.67855575,8.17633401 L2.14229769,8.17633401 L2.14229769,10.1373807 Z M2.14229769,13.3883262 L3.67855575,13.3883262 L3.67855575,11.4272795 L2.14229769,11.4272795 L2.14229769,13.3883262 Z M46,9.25510235 L46,8.03262666 L45.5845853,8.03262666 L45.5845853,5.76104876 L45.3594072,5.03904452 C45.4886905,4.94542284 45.5741028,4.79516582 45.5741028,4.62410398 C45.5741028,4.34015675 45.3419365,4.10976265 45.0561932,4.10976265 C44.7696735,4.10976265 44.5378954,4.34015675 44.5378954,4.62410398 C44.5378954,4.78861616 44.617096,4.93347933 44.7382263,5.02748629 L44.5662368,5.6550983 L41.8508997,5.6550983 L41.6800749,5.03249485 C41.8050876,4.9384879 41.8866176,4.79131308 41.8866176,4.62410398 C41.8866176,4.34015675 41.6548395,4.10976265 41.3683198,4.10976265 C41.0825766,4.10976265 40.8504102,4.34015675 40.8504102,4.62410398 C40.8504102,4.79478055 40.9350461,4.94426702 41.0639411,5.0378887 L40.8950576,5.6550983 L38.1280848,5.6550983 L37.9599777,5.04058562 C38.0904257,4.94734921 38.1762263,4.79632164 38.1762263,4.62410398 C38.1762263,4.34015675 37.9444482,4.10976265 37.6583167,4.10976265 C37.3721853,4.10976265 37.1400189,4.34015675 37.1400189,4.62410398 C37.1400189,4.78977198 37.2207724,4.93579098 37.3434557,5.02979793 L37.1722427,5.6550983 L34.4052699,5.6550983 L34.2340569,5.02864211 C34.3555754,4.93463516 34.4355525,4.78900143 34.4355525,4.62410398 C34.4355525,4.34015675 34.2033861,4.10976265 33.9176429,4.10976265 C33.6311232,4.10976265 33.3993451,4.34015675 33.3993451,4.62410398 C33.3993451,4.79709219 33.4859221,4.94889031 33.6175349,5.04174144 L33.449816,5.6550983 L30.7569967,5.6550983 L30.7569967,3.51566952 L30.7585497,3.51566952 L30.5923838,2.9092476 C30.7076905,2.81485537 30.7826204,2.67423021 30.7826204,2.51434133 C30.7826204,2.23000882 30.5508423,2 30.2647108,2 C29.9785794,2 29.746413,2.23000882 29.746413,2.51434133 C29.746413,2.68540317 29.8322136,2.83643074 29.9618851,2.93005242 L29.8015428,3.51566952 L25.9490564,3.51566952 L25.7778434,2.88921333 C25.8791736,2.79559165 25.9440093,2.66267198 25.9440093,2.51434133 C25.9440093,2.23000882 25.7118429,2 25.4257115,2 C25.13958,2 24.9078019,2.23000882 24.9078019,2.51434133 C24.9078019,2.69619085 25.0036967,2.85530918 25.147733,2.94700449 L24.9916613,3.51566952 L21.0098916,3.51566952 L20.8553729,2.95162778 C21.0044563,2.86185885 21.10501,2.7000436 21.10501,2.51434133 C21.10501,2.23000882 20.8728436,2 20.5871004,2 C20.3005807,2 20.0688025,2.23000882 20.0688025,2.51434133 C20.0688025,2.65881924 20.1293677,2.78904198 20.226039,2.88227839 L20.0524965,3.51566952 L16.2000101,3.51566952 L16.041609,2.93698736 C16.1771041,2.8445215 16.2660106,2.69002646 16.2660106,2.51434133 C16.2660106,2.23000882 16.0342325,2 15.748101,2 C15.4619695,2 15.2298032,2.23000882 15.2298032,2.51434133 C15.2298032,2.66960692 15.3008507,2.80714988 15.4111104,2.90192739 L15.2430033,3.51566952 L15.2395091,3.51566952 L15.2395091,5.6550983 L12.5517369,5.6550983 L12.3879005,5.05638187 C12.5315486,4.96507183 12.6274434,4.8059535 12.6274434,4.62410398 C12.6274434,4.34015675 12.395277,4.10976265 12.1091455,4.10976265 C11.8230141,4.10976265 11.5912359,4.34015675 11.5912359,4.62410398 C11.5912359,4.77975484 11.6622835,4.91729781 11.7721549,5.01169004 L11.5958948,5.6550983 L8.82892205,5.6550983 L8.66392087,5.0513733 C8.80252186,4.95890744 8.89414605,4.80210076 8.89414605,4.62410398 C8.89414605,4.34015675 8.66197968,4.10976265 8.37623645,4.10976265 C8.09010499,4.10976265 7.85793862,4.34015675 7.85793862,4.62410398 C7.85793862,4.78360759 7.93286857,4.92461802 8.04778704,5.01862498 L7.87346815,5.6550983 L5.10649539,5.6550983 L4.93916478,5.04482364 C5.07310692,4.9519725 5.16084872,4.79824802 5.16084872,4.62410398 C5.16084872,4.34015675 4.92907059,4.10976265 4.64293913,4.10976265 C4.35680767,4.10976265 4.1246413,4.34015675 4.1246413,4.62410398 C4.1246413,4.78746033 4.20306539,4.93155296 4.3234192,5.02555992 L4.15065325,5.6550983 L1.39765707,5.6550983 L1.22605584,5.02864211 C1.34796259,4.93463516 1.42793964,4.78900143 1.42793964,4.62410398 C1.42793964,4.34015675 1.19577327,4.10976265 0.909641808,4.10976265 C0.623510347,4.10976265 0.391732217,4.34015675 0.391732217,4.62410398 C0.391732217,4.79709219 0.478309308,4.94850503 0.609922015,5.04174144 L0.420073596,5.73369427 L0.416579454,8.03262666 L0,8.03262666 L0,9.25510235 L0.416579454,9.25510235 L0.416579454,13.4438057 L0,13.4438057 L0,14.6666667 L21.3713413,14.6666667 L21.3713413,10.0680313 C21.3713413,9.15570155 22.119476,8.41327777 23.039212,8.41327777 C23.9585598,8.41327777 24.7063063,9.15570155 24.7063063,10.0680313 L24.7063063,14.6666667 L46,14.6666667 L46,13.4438057 L45.5845853,13.4438057 L45.5845853,9.25510235 L46,9.25510235 Z" id="Fill-1"></path>
                    <polygon id="Fill-3" points="52 17.3333333 52.6666667 17.3333333 52.6666667 0 52 0"></polygon>
                    <path d="M68,13.5790001 C66.4126031,14.2872572 65.0898391,14.6666667 63.5376732,14.6666667 C59.7991833,14.6666667 58,12.2494992 58,8.55456842 C58,4.9286212 59.8344143,2.66666667 63.6789975,2.66666667 C65.6367203,2.66666667 66.8537913,3.13308945 67.823845,3.77197108 L66.642005,5.82658305 C65.9718152,5.37740615 64.984146,5.06658828 63.7322444,5.06658828 C61.7745216,5.06658828 60.9634078,6.36159742 60.9634078,8.52007665 C60.9634078,11.1273408 61.8802146,12.3706123 63.7146289,12.3706123 C64.3668028,12.3706123 65.0373929,12.2322533 65.4425494,12.0421566 L65.4425494,10.367738 L64.0317079,10.367738 L63.8551525,8.38171762 L68,8.38171762 L68,13.5790001 Z" id="Fill-4"></path>
                    <path d="M74.6162237,10.3163595 C74.6162237,8.37941779 74.099814,7.93732752 73.332955,7.93732752 C72.5664744,7.93732752 72.0500646,8.37941779 72.0500646,10.3163595 C72.0500646,12.1857919 72.533182,12.6953916 73.332955,12.6953916 C74.1334847,12.6953916 74.6162237,12.1857919 74.6162237,10.3163595 M77.3333333,10.3163595 C77.3333333,13.1710437 75.8998707,14.6666667 73.332955,14.6666667 C70.7664176,14.6666667 69.3333333,13.1710437 69.3333333,10.3163595 C69.3333333,7.86904656 70.7664176,6 73.332955,6 C75.8998707,6 77.3333333,7.86904656 77.3333333,10.3163595" id="Fill-5"></path>
                    <path d="M82.0112864,11.8721408 C82.265615,12.3009902 82.740413,12.6776927 83.265615,12.6776927 C83.9943568,12.6776927 84.6553803,12.0951269 84.6553803,10.2777706 C84.6553803,8.37518917 84.0451456,7.8778484 83.2825446,7.8778484 C82.8246762,7.8778484 82.3164037,8.11795737 82.0112864,8.40943486 L82.0112864,11.8721408 Z M80.7400282,14.4950491 L79.3333333,14.4950491 L79.3333333,2.66666667 L82.0112864,2.66666667 L82.0112864,5.4265577 L81.8589201,6.90106802 C82.1301783,6.43797293 82.9943568,5.92350932 83.9266385,5.92350932 C85.7738874,5.92350932 87.3333333,7.26064773 87.3333333,10.2606477 C87.3333333,13.1407878 85.5199436,14.6666667 83.6215211,14.6666667 C82.3333333,14.6666667 81.7230986,14.2206944 81.2317558,13.4322653 L80.7400282,14.4950491 Z" id="Fill-6"></path>
                    <polygon id="Fill-7" points="88.6666667 14.6666667 91.3333333 14.6666667 91.3333333 12 88.6666667 12"></polygon>
                    <path d="M99.293221,8.48115013 C98.6919374,8.15827658 97.9145608,8.00551921 97.2258323,8.00551921 C96.2009627,8.00551921 95.5290814,8.58337413 95.5290814,10.3165532 C95.5290814,11.98184 96.1123145,12.6275871 97.2430806,12.6275871 C98.0561572,12.6275871 98.9574809,12.3216866 99.505014,12.0327592 L100,13.9360544 C99.5403129,14.1740627 98.3208985,14.6666667 96.9783394,14.6666667 C94.22142,14.6666667 92.6666667,13.1711102 92.6666667,10.3165532 C92.6666667,7.64869957 94.2037706,6 96.9606899,6 C98.1801043,6 99.1343763,6.22142105 100,6.68007893 L99.293221,8.48115013 Z" id="Fill-8"></path>
                    <path d="M104.063693,2.66666667 L104.063693,11.8892636 C104.063693,12.3009902 104.272536,12.5235871 104.637715,12.5410991 L105.333333,12.5924677 L105.333333,14.5121719 C105.333333,14.5121719 104.568233,14.6666667 103.889986,14.6666667 C102.150546,14.6666667 101.333333,13.7579885 101.333333,12.318113 L101.333333,2.66666667 L104.063693,2.66666667 Z" id="Fill-9"></path>
                </g>
                <polygon id="Fill-10" fill="#E53F40" points="54.6666667 31 109.333333 31 109.333333 25 54.6666667 25"></polygon>
                <polygon id="Fill-11" fill="#006FB3" points="0 31 54.6666667 31 54.6666667 25 0 25"></polygon>
            </g>
        </g>
    </g>
</svg>