<?xml version="1.0" encoding="UTF-8" standalone="no"?>
<!-- Created with Inkscape (http://www.inkscape.org/) -->

<svg
   width="1000"
   height="231.3463"
   viewBox="0 0 26458334 6121037.5"
   version="1.1"
   id="svg1"
   sodipodi:docname="Clave Única.svg"
   inkscape:version="1.3 (0e150ed6c4, 2023-07-21)"
   xml:space="preserve"
   xmlns:inkscape="http://www.inkscape.org/namespaces/inkscape"
   xmlns:sodipodi="http://sodipodi.sourceforge.net/DTD/sodipodi-0.dtd"
   xmlns="http://www.w3.org/2000/svg"
   xmlns:svg="http://www.w3.org/2000/svg"
   xmlns:rdf="http://www.w3.org/1999/02/22-rdf-syntax-ns#"
   xmlns:cc="http://creativecommons.org/ns#"
   xmlns:dc="http://purl.org/dc/elements/1.1/"><title
     id="title4">Logotipo de Clave Única</title><sodipodi:namedview
     id="namedview1"
     pagecolor="#ffffff"
     bordercolor="#666666"
     borderopacity="1.0"
     inkscape:showpageshadow="true"
     inkscape:pageopacity="0.0"
     inkscape:pagecheckerboard="false"
     inkscape:deskcolor="#d1d1d1"
     inkscape:document-units="px"
     showgrid="false"
     showborder="true"
     borderlayer="true"
     showguides="true"
     inkscape:zoom="0.50346003"
     inkscape:cx="507.48815"
     inkscape:cy="109.24403"
     inkscape:window-width="1366"
     inkscape:window-height="705"
     inkscape:window-x="-8"
     inkscape:window-y="-8"
     inkscape:window-maximized="1"
     inkscape:current-layer="layer1" /><defs
     id="defs1" /><g
     inkscape:label="Capa 1"
     inkscape:groupmode="layer"
     id="layer1"
     transform="translate(15442500,-11097358)"><g
       id="g10"><g
         id="g1"
         style="stroke-width:0.6795552;font-variation-settings:normal;opacity:1;vector-effect:none;fill:#557ebf;fill-opacity:1;stroke:none;stroke-linecap:butt;stroke-linejoin:miter;stroke-miterlimit:4;stroke-dasharray:none;stroke-dashoffset:0;stroke-opacity:1;-inkscape-stroke:none;stop-color:#000000;stop-opacity:1"
         transform="matrix(38936.75,0,0,38932.716,-14390802,12148949)">&#10;		<path
   id="path1"
   style="stroke-width:0.6795552;font-variation-settings:normal;vector-effect:none;fill:#557ebf;fill-opacity:1;stroke:none;stroke-linecap:butt;stroke-linejoin:miter;stroke-miterlimit:4;stroke-dasharray:none;stroke-dashoffset:0;stroke-opacity:1;-inkscape-stroke:none;stop-color:#000000;stop-opacity:1"
   class="st16"
   d="m 563.3,67.7 h -0.4 c -1.5,0 -2.9,0.9 -3.5,2.2 v 0 c 0,0 -0.1,0.2 -0.2,0.5 0,0 0,0 0,-0.1 v 0.1 -0.1 c -0.4,0.7 -0.9,1.6 -1.2,2 v 0 c -3,4.2 -7.8,7 -13.2,7 -8.7,0 -16.2,-7.6 -16.2,-16.4 0,-9.3 7.4,-16.5 16.2,-16.5 5.6,0 10.7,2.9 13.7,7.6 0.3,0.4 0.4,0.7 0.5,0.8 -0.1,-0.1 -0.1,-0.2 -0.1,-0.4 0.5,1.6 2,2.7 3.8,2.7 h 0.2 c 2.2,0 4,-1.8 4,-4 V 53 c 0,-0.9 -0.3,-1.8 -0.9,-2.5 -4.1,-6.7 -11.7,-11.4 -21,-11.4 -14.3,0 -24.5,10.9 -24.5,23.7 0,13 9.7,23.6 24.5,23.6 10.2,0 18.1,-5.1 21.9,-12.7 v 0 c 0.3,-0.6 0.5,-1.2 0.5,-1.9 v -0.4 c -0.2,-1.9 -1.9,-3.7 -4.1,-3.7 z" />&#10;	</g><g
         id="g2"
         style="stroke-width:0.6795552;font-variation-settings:normal;opacity:1;vector-effect:none;fill:#557ebf;fill-opacity:1;stroke:none;stroke-linecap:butt;stroke-linejoin:miter;stroke-miterlimit:4;stroke-dasharray:none;stroke-dashoffset:0;stroke-opacity:1;-inkscape-stroke:none;stop-color:#000000;stop-opacity:1"
         transform="matrix(38936.75,0,0,38932.716,-14390802,12148949)">&#10;		<path
   id="path2"
   style="stroke-width:0.6795552;font-variation-settings:normal;vector-effect:none;fill:#557ebf;fill-opacity:1;stroke:none;stroke-linecap:butt;stroke-linejoin:miter;stroke-miterlimit:4;stroke-dasharray:none;stroke-dashoffset:0;stroke-opacity:1;-inkscape-stroke:none;stop-color:#000000;stop-opacity:1"
   class="st16"
   d="m 625.5,63.1 c 0,-0.1 0,-0.2 0,-0.3 0,-12.6 -10.1,-23.4 -24.2,-23.4 -14.1,0 -24.2,10.8 -24.2,23.4 0,12.8 9.6,23.3 24.2,23.3 6.6,0 12.4,-2.2 16.5,-5.8 v 2.3 c 0,0 0,0 0,0.1 0,0 0,0 0,0.1 v 0 0 c 0.1,2.1 1.7,3.8 3.8,3.8 2.1,0 3.8,-1.7 3.8,-3.8 v 0 0 c 0,0 0,0 0,-0.1 0,0 0,0 0,-0.1 V 63.1 Z m -24.1,15.8 c -8.5,0 -16,-7.5 -16,-16.1 0,-9.2 7.3,-16.2 16,-16.2 8.5,0 16,6.9 16,16.2 -0.1,8.6 -7.4,16.1 -16,16.1 z" />&#10;	</g><g
         id="g3"
         style="stroke-width:0.6795552;font-variation-settings:normal;opacity:1;vector-effect:none;fill:#557ebf;fill-opacity:1;stroke:none;stroke-linecap:butt;stroke-linejoin:miter;stroke-miterlimit:4;stroke-dasharray:none;stroke-dashoffset:0;stroke-opacity:1;-inkscape-stroke:none;stop-color:#000000;stop-opacity:1"
         transform="matrix(38936.75,0,0,38932.716,-14390802,12148949)">&#10;		<path
   id="path3"
   style="stroke-width:0.6795552;font-variation-settings:normal;vector-effect:none;fill:#557ebf;fill-opacity:1;stroke:none;stroke-linecap:butt;stroke-linejoin:miter;stroke-miterlimit:4;stroke-dasharray:none;stroke-dashoffset:0;stroke-opacity:1;-inkscape-stroke:none;stop-color:#000000;stop-opacity:1"
   class="st16"
   d="m 508.8,43.2 c 0,-2.1 -1.7,-3.8 -3.8,-3.8 -2.1,0 -3.8,1.7 -3.8,3.8 0,0 0,0 0,0.1 v 39.5 c 0,0 0,0 0,0.1 0,0.1 0,0 0,0.1 v 0 0 c 0.1,2.1 1.7,3.8 3.8,3.8 2.1,0 3.8,-1.7 3.8,-3.8 v 0 0 c 0,0 0,0 0,-0.1 0,-0.1 0,0 0,-0.1 z" />&#10;	</g><g
         id="g4"
         style="stroke-width:0.6795552;font-variation-settings:normal;opacity:1;vector-effect:none;fill:#557ebf;fill-opacity:1;stroke:none;stroke-linecap:butt;stroke-linejoin:miter;stroke-miterlimit:4;stroke-dasharray:none;stroke-dashoffset:0;stroke-opacity:1;-inkscape-stroke:none;stop-color:#000000;stop-opacity:1"
         transform="matrix(38936.75,0,0,38932.716,-14390802,12148949)">&#10;		<path
   id="path4"
   style="stroke-width:0.6795552;font-variation-settings:normal;vector-effect:none;fill:#557ebf;fill-opacity:1;stroke:none;stroke-linecap:butt;stroke-linejoin:miter;stroke-miterlimit:4;stroke-dasharray:none;stroke-dashoffset:0;stroke-opacity:1;-inkscape-stroke:none;stop-color:#000000;stop-opacity:1"
   class="st16"
   d="m 488.5,60.7 v 0 c 0,-0.1 0,-0.2 0,-0.2 v -0.6 0 c -0.4,-11.2 -9,-20.5 -22,-20.5 -13,0 -21.6,9.2 -22,20.5 v 0 23.1 c 0,2.1 1.7,3.8 3.8,3.8 2.1,0 3.8,-1.7 3.8,-3.8 V 60.7 c 0,-7.8 6.7,-14.7 14.5,-14.7 7.8,0 14.5,6.9 14.5,14.7 V 83 c 0,2.1 1.7,3.8 3.8,3.8 2.1,0 3.8,-1.7 3.8,-3.8 V 61.7 61.6 c 0,0 0,0 0,-0.1 z" />&#10;	</g><g
         id="g5"
         style="stroke-width:0.679556;font-variation-settings:normal;opacity:1;vector-effect:none;fill:#305baa;fill-opacity:1;stroke:none;stroke-linecap:butt;stroke-linejoin:miter;stroke-miterlimit:4;stroke-dasharray:none;stroke-dashoffset:0;stroke-opacity:1;-inkscape-stroke:none;stop-color:#000000;stop-opacity:1"
         transform="matrix(38936.75,0,0,38932.716,-14390802,12148949)">&#10;		<path
   id="path5"
   style="stroke-width:0.679556;font-variation-settings:normal;vector-effect:none;fill:#305baa;fill-opacity:1;stroke:none;stroke-linecap:butt;stroke-linejoin:miter;stroke-miterlimit:4;stroke-dasharray:none;stroke-dashoffset:0;stroke-opacity:1;-inkscape-stroke:none;stop-color:#000000;stop-opacity:1"
   class="st17"
   d="m 267,63.2 c 0,-12.8 -10.2,-23.7 -24.5,-23.7 -14.3,0 -24.5,10.9 -24.5,23.7 0,13 9.7,23.6 24.5,23.6 6.7,0 12.5,-2.2 16.7,-5.9 v 2.3 c 0,0 0,0 0,0.1 0,0 0,0 0,0.1 v 0 0 c 0.1,2.1 1.8,3.8 3.9,3.8 2.1,0 3.8,-1.7 3.9,-3.8 v 0 0 c 0,0 0,0 0,-0.1 0,0 0,0 0,-0.1 V 63.4 c 0,0 0,-0.1 0,-0.2 z m -24.5,16.3 c -8.7,0 -16.2,-7.6 -16.2,-16.4 0,-9.3 7.4,-16.5 16.2,-16.5 8.7,0 16.2,7 16.2,16.5 0,8.7 -7.4,16.4 -16.2,16.4 z" />&#10;	</g><g
         id="g6"
         style="stroke-width:0.679556;font-variation-settings:normal;opacity:1;vector-effect:none;fill:#305baa;fill-opacity:1;stroke:none;stroke-linecap:butt;stroke-linejoin:miter;stroke-miterlimit:4;stroke-dasharray:none;stroke-dashoffset:0;stroke-opacity:1;-inkscape-stroke:none;stop-color:#000000;stop-opacity:1"
         transform="matrix(38936.75,0,0,38932.716,-14390802,12148949)">&#10;		<path
   id="path6"
   style="stroke-width:0.679556;font-variation-settings:normal;vector-effect:none;fill:#305baa;fill-opacity:1;stroke:none;stroke-linecap:butt;stroke-linejoin:miter;stroke-miterlimit:4;stroke-dasharray:none;stroke-dashoffset:0;stroke-opacity:1;-inkscape-stroke:none;stop-color:#000000;stop-opacity:1"
   class="st17"
   d="m 208.4,80 v 0 h -2.3 c -2.5,0 -5,-1.7 -5,-6.8 v -45.8 -0.1 -0.1 -0.3 0 c -0.1,-2 -1.8,-3.7 -3.9,-3.7 -2.1,0 -3.8,1.6 -3.9,3.7 v 0 46.8 c 0,9.4 4.8,13.6 12,13.6 h 3.2 v 0 c 2,0 3.6,-1.6 3.6,-3.6 C 212,81.6 210.4,80 208.4,80 Z" />&#10;	</g><g
         id="g7"
         style="stroke-width:0.679556;font-variation-settings:normal;opacity:1;vector-effect:none;fill:#305baa;fill-opacity:1;stroke:none;stroke-linecap:butt;stroke-linejoin:miter;stroke-miterlimit:4;stroke-dasharray:none;stroke-dashoffset:0;stroke-opacity:1;-inkscape-stroke:none;stop-color:#000000;stop-opacity:1"
         transform="matrix(38936.75,0,0,38932.716,-14390802,12148949)">&#10;		<path
   id="path7"
   style="stroke-width:0.679556;font-variation-settings:normal;vector-effect:none;fill:#305baa;fill-opacity:1;stroke:none;stroke-linecap:butt;stroke-linejoin:miter;stroke-miterlimit:4;stroke-dasharray:none;stroke-dashoffset:0;stroke-opacity:1;-inkscape-stroke:none;stop-color:#000000;stop-opacity:1"
   class="st17"
   d="m 318.3,39.5 c -1.8,-0.9 -4.1,-0.1 -5,1.7 l -16.9,34.3 -17,-34.3 c -0.9,-1.8 -3.1,-2.6 -5,-1.7 -1.8,0.9 -2.6,3.1 -1.7,5 l 20.4,41.1 c 0.6,1.3 1.9,2.1 3.3,2.1 v 0 c 1.4,0 2.7,-0.8 3.3,-2.1 l 20.2,-41.1 c 1,-1.9 0.2,-4.1 -1.6,-5 z" />&#10;	</g><g
         id="g8"
         style="stroke-width:0.679556;font-variation-settings:normal;opacity:1;vector-effect:none;fill:#305baa;fill-opacity:1;stroke:none;stroke-linecap:butt;stroke-linejoin:miter;stroke-miterlimit:4;stroke-dasharray:none;stroke-dashoffset:0;stroke-opacity:1;-inkscape-stroke:none;stop-color:#000000;stop-opacity:1"
         transform="matrix(38936.75,0,0,38932.716,-14390802,12148949)">&#10;		<path
   id="path8"
   style="stroke-width:0.679556;font-variation-settings:normal;vector-effect:none;fill:#305baa;fill-opacity:1;stroke:none;stroke-linecap:butt;stroke-linejoin:miter;stroke-miterlimit:4;stroke-dasharray:none;stroke-dashoffset:0;stroke-opacity:1;-inkscape-stroke:none;stop-color:#000000;stop-opacity:1"
   class="st17"
   d="m 351.5,39.1 c -14.1,0 -24.7,10.2 -24.7,23.9 0,14.2 10.7,23.9 26.2,23.9 6.8,0 12.8,-1.9 17.5,-5.5 0.5,-0.4 1.7,-1.5 1.7,-2.8 0,-2.2 -2.2,-4.3 -4.3,-4.3 -1.2,0 -1.7,0.2 -2.4,0.7 -3.5,2.4 -7.3,4.7 -12.2,4.7 -8.1,0 -15,-4.1 -16.7,-11.3 L 336,66 h 34.5 c 3,0 5,-1.9 5,-4.7 -0.1,-8.8 -6.5,-22.2 -24,-22.2 z m -15.6,19.4 c 1.5,-7.6 7.8,-12.2 15.2,-12.2 7.2,0 14.1,4.7 15.2,12.2 z" />&#10;	</g><g
         id="g9"
         style="stroke-width:0.6795552;font-variation-settings:normal;opacity:1;vector-effect:none;fill:#557ebf;fill-opacity:1;stroke:none;stroke-linecap:butt;stroke-linejoin:miter;stroke-miterlimit:4;stroke-dasharray:none;stroke-dashoffset:0;stroke-opacity:1;-inkscape-stroke:none;stop-color:#000000;stop-opacity:1"
         transform="matrix(38936.75,0,0,38932.716,-14390802,12148949)">&#10;		<path
   id="path9"
   style="stroke-width:0.6795552;font-variation-settings:normal;vector-effect:none;fill:#557ebf;fill-opacity:1;stroke:none;stroke-linecap:butt;stroke-linejoin:miter;stroke-miterlimit:4;stroke-dasharray:none;stroke-dashoffset:0;stroke-opacity:1;-inkscape-stroke:none;stop-color:#000000;stop-opacity:1"
   class="st16"
   d="m 407.8,25.7 c -1.3,0 -2.6,-0.7 -3.3,-2 -0.9,-1.8 -0.2,-4.1 1.6,-5 L 427.8,7.4 c 1.8,-0.9 4.1,-0.2 5,1.6 0.9,1.8 0.2,4.1 -1.6,5 l -21.7,11.3 c -0.5,0.3 -1.1,0.4 -1.7,0.4 z" />&#10;	</g><path
         id="path10"
         style="stroke-width:26458.3313423;font-variation-settings:normal;opacity:1;vector-effect:none;fill:#305baa;fill-opacity:1;stroke:none;stroke-linecap:butt;stroke-linejoin:miter;stroke-miterlimit:4;stroke-dasharray:none;stroke-dashoffset:0;stroke-opacity:1;-inkscape-stroke:none;stop-color:#000000;stop-opacity:1"
         class="st17"
         d="m -12739884,14562777 c 58405,66186 155747,73973 221940,15573 66192,-58399 73979,-155730 15574,-221916 -58405,-66186 -155747,-73972 -221939,-15573 -66193,50612 -73980,155731 -15575,221916 z" /><path
         id="path11"
         style="stroke-width:26458.3313423;font-variation-settings:normal;opacity:1;vector-effect:none;fill:#305baa;fill-opacity:1;stroke:none;stroke-linecap:butt;stroke-linejoin:miter;stroke-miterlimit:4;stroke-dasharray:none;stroke-dashoffset:0;stroke-opacity:1;-inkscape-stroke:none;stop-color:#000000;stop-opacity:1"
         class="st17"
         d="m -11961149,12760193 c -73980,-31147 -155747,7786 -186896,77865 -31150,73972 7787,155731 77873,186877 560689,225810 930589,766975 930589,1374325 0,817587 -665819,1483336 -1483491,1483336 -817671,0 -1483490,-665749 -1483490,-1483336 0,-599564 354325,-1129049 903333,-1362645 73980,-31146 105129,-112905 77873,-186877 -31149,-73972 -112916,-105118 -186896,-77866 -658031,276423 -1078548,914919 -1078548,1627388 0,973318 794310,1767545 1767728,1767545 973419,0 1767729,-794227 1767729,-1767545 0,-724149 -436092,-1370432 -1105804,-1639067 z" /><path
         id="path12"
         style="stroke-width:26458.3313423;font-variation-settings:normal;opacity:1;vector-effect:none;fill:#305baa;fill-opacity:1;stroke:none;stroke-linecap:butt;stroke-linejoin:miter;stroke-miterlimit:4;stroke-dasharray:none;stroke-dashoffset:0;stroke-opacity:1;-inkscape-stroke:none;stop-color:#000000;stop-opacity:1"
         class="st17"
         d="m -13526406,14453766 c 0,502232 404942,907132 907226,907132 502284,0 907226,-404900 907226,-907132 0,-451620 -334856,-833160 -774841,-895453 v -1121262 h 381580 c 77874,0 144066,-62292 144066,-144051 0,-77865 -62299,-144051 -144066,-144051 h -529540 c -77873,0 -144066,62292 -144066,144051 v 1269207 c -424410,77865 -747585,447726 -747585,891559 z m 1526320,0 c 0,338714 -276450,619030 -619094,619030 -342643,0 -619094,-276422 -619094,-619030 0,-342608 276451,-619030 619094,-619030 342644,0 619094,280315 619094,619030 z" /><g
         id="g13"
         style="stroke-width:0.679556;font-variation-settings:normal;opacity:1;vector-effect:none;fill:#305baa;fill-opacity:1;stroke:none;stroke-linecap:butt;stroke-linejoin:miter;stroke-miterlimit:4;stroke-dasharray:none;stroke-dashoffset:0;stroke-opacity:1;-inkscape-stroke:none;stop-color:#000000;stop-opacity:1"
         transform="matrix(38936.75,0,0,38932.716,-14390802,12148949)">&#10;		<path
   id="path13"
   style="stroke-width:0.679556;stroke:none;font-variation-settings:normal;vector-effect:none;fill:#305baa;fill-opacity:1;stroke-linecap:butt;stroke-linejoin:miter;stroke-miterlimit:4;stroke-dasharray:none;stroke-dashoffset:0;stroke-opacity:1;-inkscape-stroke:none;stop-color:#000000;stop-opacity:1"
   class="st17"
   d="m 151,88.9 c -18.3,0 -33.2,-14.9 -33.2,-33.2 0,-18.3 14.9,-33.2 33.2,-33.2 11.6,0 22.6,6.2 28.5,16.3 1,1.8 0.5,4 -1.3,5.1 -1.8,1 -4,0.5 -5.1,-1.3 -4.6,-7.7 -13.2,-12.7 -22.2,-12.7 -14.3,0 -25.8,11.5 -25.8,25.8 0,14.3 11.5,25.8 25.8,25.8 10,0 19.2,-5.8 23.4,-15 0.9,-1.9 3.1,-2.7 4.9,-1.8 1.9,0.9 2.7,3.1 1.8,4.9 -5.3,11.7 -17.1,19.3 -30,19.3 z" />&#10;	</g><path
         id="path14"
         style="stroke-width:26458.30012147;stroke:none;font-variation-settings:normal;opacity:1;vector-effect:none;fill:#557ebf;fill-opacity:1;stroke-linecap:butt;stroke-linejoin:miter;stroke-miterlimit:4;stroke-dasharray:none;stroke-dashoffset:0;stroke-opacity:1;-inkscape-stroke:none;stop-color:#000000;stop-opacity:1"
         class="st16"
         d="m 2387043.6,13176773 c -77873.5,0 -144066,66185 -144066,144051 v 1343178 c 0,358181 -292025.6,657963 -658031.1,657963 -358218.1,0 -658031.05,-291995 -658031.05,-657963 v -1343178 c 0,-77866 -66192.47,-144051 -144065.97,-144051 -77873.5,0 -144065.98,66185 -144065.98,144051 v 1343178 c 0,521699 424410.6,949959 946163,949959 521752.5,0 946163.1,-420474 946163.1,-946065 v -1347072 c 0,-77866 -62298.9,-144051 -144066,-144051 z" /></g></g><style
     type="text/css"
     id="style1">&#10;	.st0{fill:#1A1243;}&#10;	.st1{fill:#565656;}&#10;	.st2{fill:#EA3E47;}&#10;	.st3{fill:#166AB4;}&#10;	.st4{fill:#A5A5A5;}&#10;	.st5{fill:#FFFFFF;}&#10;	.st6{fill:#92D733;}&#10;	.st7{fill:#2B4772;}&#10;	.st8{fill:#3C62A8;}&#10;	.st9{fill-rule:evenodd;clip-rule:evenodd;fill:#FFFFFF;}&#10;	.st10{fill-rule:evenodd;clip-rule:evenodd;}&#10;	.st11{fill-rule:evenodd;clip-rule:evenodd;fill:#A5A5A5;}&#10;	.st12{fill-rule:evenodd;clip-rule:evenodd;fill:#E4283C;}&#10;	.st13{fill-rule:evenodd;clip-rule:evenodd;fill:#136CBE;}&#10;	.st14{fill-rule:evenodd;clip-rule:evenodd;fill:#8F8F8F;}&#10;	.st15{fill:#8F8F8F;}&#10;	.st16{fill:#557EBF;}&#10;	.st17{fill:#305BAA;}&#10;</style><metadata
     id="metadata4"><rdf:RDF><cc:Work
         rdf:about=""><dc:title>Logotipo de Clave Única</dc:title><dc:subject><rdf:Bag><rdf:li>Logotipo</rdf:li><rdf:li>Clave Única</rdf:li><rdf:li>claveunica</rdf:li><rdf:li>Estado</rdf:li><rdf:li>Chile</rdf:li><rdf:li>Logo</rdf:li><rdf:li>Isotipo</rdf:li><rdf:li>Isologo</rdf:li><rdf:li>SVG</rdf:li><rdf:li>Vector</rdf:li><rdf:li>Transparente</rdf:li><rdf:li>Ícono</rdf:li><rdf:li>PDF</rdf:li><rdf:li>PNG</rdf:li><rdf:li>Editable</rdf:li></rdf:Bag></dc:subject></cc:Work></rdf:RDF></metadata></svg>
